<svg fill="none" height="100%" width="100%" viewBox="0 0 1000 1000" xmlns:xlink="http://www.w3.org/1999/xlink" xmlns="http://www.w3.org/2000/svg"><g transform="matrix(5.64,0,0,5.64,-5307.531,-3631.453)" id="i0"><g id="i1"><path stroke-miterlimit="10" stroke-width="1" stroke="#383c40" fill="#57b3f9" d="M1074.208,780.259C1074.208,780.259,985.2,780.259,985.2,780.259C983.543,780.259,982.2,778.916,982.2,777.259C982.2,777.259,982.2,698.078,982.2,698.078C982.2,696.421,983.543,695.078,985.2,695.078C985.2,695.078,1074.208,695.078,1074.208,695.078C1075.865,695.078,1077.208,696.421,1077.208,698.078C1077.208,698.078,1077.208,777.259,1077.208,777.259C1077.208,778.916,1075.865,780.259,1074.208,780.259Z" /></g><g id="i2"><path stroke-miterlimit="10" stroke-width="1" stroke="#383c40" fill="#57b3f9" d="M1029.704,780.259C1029.704,780.259,1029.704,695.078,1029.704,695.078" /></g></g><g transform="matrix(1.15,0,0,1.15,411.416,22.33)" id="i3"><g id="i4" transform="matrix(1,0,0,1,173.845,390.362)" fill="#f4f4f4"><path stroke-linejoin="round" stroke-linecap="round" stroke-width="5.1" stroke="#383c40" d="M-97.224,225.212C-6.113,198.358,97.224,225.212,97.224,225.212C97.224,225.212,97.224,-194.788,97.224,-194.788C97.224,-194.788,-7.224,-225.212,-97.224,-194.788C-97.224,-194.788,-97.224,225.212,-97.224,225.212Z" /></g></g><g transform="matrix(-1.15,0,0,1.15,588.584,22.331)" id="i5"><g id="i4" transform="matrix(1,0,0,1,173.845,390.362)" fill="#f4f4f4"><path stroke-linejoin="round" stroke-linecap="round" stroke-width="5.1" stroke="#383c40" d="M-97.224,225.212C-6.113,198.358,97.224,225.212,97.224,225.212C97.224,225.212,97.224,-194.788,97.224,-194.788C97.224,-194.788,-7.224,-225.212,-97.224,-194.788C-97.224,-194.788,-97.224,225.212,-97.224,225.212Z" /></g></g><g id="i6"><g transform="translate(499.564,419.653)"><g transform="scale(1.15,1.15)"><animateTransform repeatCount="indefinite" type="scale" attributeName="transform" dur="1.533s" begin="0s" calcMode="spline" values="1.15 1.15; 1.15 1.15; -1.15 1.15; -1.15 1.15" keyTimes="0; 0.26087; 0.347826; 1" keySplines="0 0 1 1; 0.167 0.167 0.833 0.833; 0 0 1 1" fill="freeze" /><g transform="translate(-76.621,-345.362)"><g id="i4" transform="matrix(1,0,0,1,173.845,390.362)" fill="#f4f4f4"><path d="M-97.224,225.212C-6.113,198.358,97.224,225.212,97.224,225.212C97.224,225.212,97.224,-194.788,97.224,-194.788C97.224,-194.788,-7.224,-225.212,-97.224,-194.788C-97.224,-194.788,-97.224,225.212,-97.224,225.212Z" stroke-linejoin="round" stroke-linecap="round" stroke-width="5.1" stroke="#383c40"><animate repeatCount="indefinite" attributeName="d" dur="1.533s" begin="0s" calcMode="spline" values="M-97.224,225.212C-6.113,198.358,97.224,225.212,97.224,225.212C97.224,225.212,97.224,-194.788,97.224,-194.788C97.224,-194.788,-7.224,-225.212,-97.224,-194.788C-97.224,-194.788,-97.224,225.212,-97.224,225.212Z; M-97.224,225.212C-97.224,225.212,52.776,164.788,52.776,164.788C52.776,164.788,52.776,-255.212,52.776,-255.212C52.776,-255.212,-97.224,-194.788,-97.224,-194.788C-97.224,-194.788,-97.224,225.212,-97.224,225.212Z; M-97.224,225.212C-97.224,225.212,-7.224,134.788,-7.224,134.788C-7.224,134.788,-7.224,-285.212,-7.224,-285.212C-7.224,-285.212,-97.224,-194.788,-97.224,-194.788C-97.224,-194.788,-97.224,225.212,-97.224,225.212Z; M-97.224,225.212C-97.224,225.212,-67.224,104.788,-67.224,104.788C-67.224,104.788,-67.224,-315.212,-67.224,-315.212C-67.224,-315.212,-97.224,-194.788,-97.224,-194.788C-97.224,-194.788,-97.224,225.212,-97.224,225.212Z; M-97.224,225.212C-97.224,225.212,-67.224,104.788,-67.224,104.788C-67.224,104.788,-67.224,-315.212,-67.224,-315.212C-67.224,-315.212,-97.224,-194.788,-97.224,-194.788C-97.224,-194.788,-97.224,225.212,-97.224,225.212Z; M-97.224,225.212C-97.224,225.212,-7.224,134.788,-7.224,134.788C-7.224,134.788,-7.224,-285.212,-7.224,-285.212C-7.224,-285.212,-97.224,-194.788,-97.224,-194.788C-97.224,-194.788,-97.224,225.212,-97.224,225.212Z; M-97.224,225.212C-97.224,225.212,52.776,164.788,52.776,164.788C52.776,164.788,52.776,-255.212,52.776,-255.212C52.776,-255.212,-97.224,-194.788,-97.224,-194.788C-97.224,-194.788,-97.224,225.212,-97.224,225.212Z; M-97.224,225.212C-6.113,198.358,97.224,225.212,97.224,225.212C97.224,225.212,97.224,-194.788,97.224,-194.788C97.224,-194.788,-7.224,-225.212,-97.224,-194.788C-97.224,-194.788,-97.224,225.212,-97.224,225.212Z; M-97.224,225.212C-6.113,198.358,97.224,225.212,97.224,225.212C97.224,225.212,97.224,-194.788,97.224,-194.788C97.224,-194.788,-7.224,-225.212,-97.224,-194.788C-97.224,-194.788,-97.224,225.212,-97.224,225.212Z" keyTimes="0; 0.086956; 0.173913; 0.260869; 0.347826; 0.434783; 0.521739; 0.608696; 1" keySplines="0.167 0 0.833 1; 0.167 0 0.833 1; 0.167 0 0.833 1; 0.167 0 0.833 1; 0.167 0 0.833 1; 0.167 0 0.833 1; 0.167 0 0.833 1; 0 0 1 1" fill="freeze" /></path></g></g></g></g></g></svg>